<?xml version="1.0" encoding="utf-8"?>
<!-- Generator: Adobe Illustrator 18.1.1, SVG Export Plug-In . SVG Version: 6.00 Build 0)  -->
<svg version="1.1" id="Layer_1" xmlns="http://www.w3.org/2000/svg" xmlns:xlink="http://www.w3.org/1999/xlink" x="0px" y="0px"
	 viewBox="0 0 960 560" enable-background="new 0 0 960 560" xml:space="preserve">
<ellipse fill="none" stroke="#057C6D" stroke-width="2" cx="242.9" cy="252.9" rx="11.8" ry="11.8"/>
<ellipse fill="none" stroke="#057C6D" stroke-width="2" cx="408.5" cy="252.9" rx="11.8" ry="11.8"/>
<ellipse fill="none" stroke="#057C6D" stroke-width="2" cx="574.2" cy="252.9" rx="11.8" ry="11.8"/>
<ellipse fill="none" stroke="#057C6D" stroke-width="2" cx="706.8" cy="323.8" rx="11.8" ry="11.8"/>
<text transform="matrix(1.0051 0 0 1 187.7557 224.1295)" font-family="'ArialMT'" font-size="26.2716">Commit A</text>
<text transform="matrix(1.0051 0 0 1 360.6168 222.8582)" font-family="'ArialMT'" font-size="26.2716">Commit B</text>
<text transform="matrix(1.0051 0 0 1 522.4348 220.2759)" font-family="'ArialMT'" font-size="26.2716">Commit C</text>
<text transform="matrix(1.0051 0 0 1 674.7866 220.2876)" font-family="'ArialMT'" font-size="26.2716">Commit D</text>
<text transform="matrix(1.0051 0 0 1 824.9714 220.2876)" font-family="'ArialMT'" font-size="26.2716">Commit DY</text>
<text transform="matrix(1.0051 0 0 1 652.2031 361.1767)" font-family="'ArialMT'" font-size="26.2716">Commit X</text>
<text transform="matrix(1.0051 0 0 1 815.7685 361.1767)" font-family="'ArialMT'" font-size="26.2716">Commit Y</text>
<line fill="none" stroke="#000000" x1="276.2" y1="252.9" x2="375.5" y2="252.9"/>
<line fill="none" stroke="#000000" x1="441.5" y1="252.9" x2="541.2" y2="252.9"/>
<ellipse fill="none" stroke="#057C6D" stroke-width="2" cx="732" cy="251.7" rx="11.8" ry="11.8"/>
<line fill="none" stroke="#000000" x1="599.6" y1="251.7" x2="699" y2="251.7"/>
<ellipse fill="none" stroke="#057C6D" stroke-width="2" cx="882.2" cy="251.4" rx="11.8" ry="11.8"/>
<line fill="none" stroke="#000000" x1="757.1" y1="251.4" x2="856.7" y2="251.4"/>
<ellipse fill="none" stroke="#057C6D" stroke-width="2" cx="836.1" cy="324.7" rx="11.8" ry="11.8"/>
<line fill="none" stroke="#000000" x1="734.1" y1="324.7" x2="811.6" y2="324.7"/>
<line fill="none" stroke="#000000" x1="597.2" y1="266.2" x2="683.5" y2="315.3"/>
<text transform="matrix(1.0051 0 0 1 3.7956 263.9418)" font-family="'ArialMT'" font-size="31.2327">Rama Master</text>
<text transform="matrix(1.0051 0 0 1 4.7333 335.3524)" font-family="'ArialMT'" font-size="31.2327">Rama Experimento</text>
<line fill="none" stroke="#000000" x1="869.8" y1="271.7" x2="847.9" y2="303.2"/>
</svg>
