<?xml version="1.0" encoding="utf-8"?>
<!-- Generator: Adobe Illustrator 18.1.1, SVG Export Plug-In . SVG Version: 6.00 Build 0)  -->
<svg version="1.1" id="Layer_1" xmlns="http://www.w3.org/2000/svg" xmlns:xlink="http://www.w3.org/1999/xlink" x="0px" y="0px"
	 viewBox="0 0 317 57.3" enable-background="new 0 0 317 57.3" xml:space="preserve">
<g>
	<ellipse fill="none" stroke="#B63426" stroke-width="2" cx="80.2" cy="19.7" rx="3.9" ry="3.9"/>
	<ellipse fill="none" stroke="#B63426" stroke-width="2" cx="134.9" cy="19.7" rx="3.9" ry="3.9"/>
	<ellipse fill="none" stroke="#B63426" stroke-width="2" cx="189.6" cy="19.7" rx="3.9" ry="3.9"/>
	<ellipse fill="none" stroke="#B63426" stroke-width="2" cx="233.4" cy="43.1" rx="3.9" ry="3.9"/>
	<text transform="matrix(1.0051 0 0 1 61.9987 10.2012)" font-family="'MyriadPro-Regular'" font-size="8.6751">Commit A</text>
	<text transform="matrix(1.0051 0 0 1 119.0788 9.7812)" font-family="'MyriadPro-Regular'" font-size="8.6751">Commit B</text>
	<text transform="matrix(1.0051 0 0 1 172.5124 8.9287)" font-family="'MyriadPro-Regular'" font-size="8.6751">Commit C</text>
	<text transform="matrix(1.0051 0 0 1 222.82 8.9326)" font-family="'MyriadPro-Regular'" font-size="8.6751">Commit D</text>
	<text transform="matrix(1.0051 0 0 1 272.4128 8.9326)" font-family="'MyriadPro-Regular'" font-size="8.6751">Commit DY</text>
	<text transform="matrix(1.0051 0 0 1 215.363 55.4551)" font-family="'MyriadPro-Regular'" font-size="8.6751">Commit X</text>
	<text transform="matrix(1.0051 0 0 1 269.3737 55.4551)" font-family="'MyriadPro-Regular'" font-size="8.6751">Commit Y</text>
	<line stroke="#000000" x1="91.2" y1="19.7" x2="124" y2="19.7"/>
	<line stroke="#000000" x1="145.8" y1="19.7" x2="178.7" y2="19.7"/>
	<ellipse fill="none" stroke="#B63426" stroke-width="2" cx="241.7" cy="19.3" rx="3.9" ry="3.9"/>
	<line stroke="#000000" x1="198" y1="19.3" x2="230.8" y2="19.3"/>
	<ellipse fill="none" stroke="#B63426" stroke-width="2" cx="291.3" cy="19.2" rx="3.9" ry="3.9"/>
	<line stroke="#000000" x1="250" y1="19.2" x2="282.9" y2="19.2"/>
	<ellipse fill="none" stroke="#B63426" stroke-width="2" cx="276.1" cy="43.4" rx="3.9" ry="3.9"/>
	<line stroke="#000000" x1="242.4" y1="43.4" x2="268" y2="43.4"/>
	<line stroke="#000000" x1="197.2" y1="24.1" x2="225.7" y2="40.3"/>
	<text transform="matrix(1.0051 0 0 1 1.2536 23.3477)" font-family="'MyriadPro-Regular'" font-size="10.3133">Rama Master</text>
	<text transform="matrix(1.0051 0 0 1 1.5632 46.9277)" font-family="'MyriadPro-Regular'" font-size="10.3133">Rama Experimento</text>
	<line stroke="#000000" x1="287.2" y1="25.9" x2="280" y2="36.3"/>
</g>
</svg>
