<?xml version="1.0" encoding="utf-8"?>
<!-- Generator: Adobe Illustrator 18.1.1, SVG Export Plug-In . SVG Version: 6.00 Build 0)  -->
<svg version="1.1" id="Layer_1" xmlns="http://www.w3.org/2000/svg" xmlns:xlink="http://www.w3.org/1999/xlink" x="0px" y="0px"
	 viewBox="0 0 960 560" enable-background="new 0 0 960 560" xml:space="preserve">
<ellipse fill="none" stroke="#057C6D" stroke-width="2" cx="297.5" cy="273.4" rx="12.9" ry="12.9"/>
<ellipse fill="none" stroke="#057C6D" stroke-width="2" cx="477" cy="273.4" rx="12.9" ry="12.9"/>
<ellipse fill="none" stroke="#057C6D" stroke-width="2" cx="656.4" cy="273.4" rx="12.9" ry="12.9"/>
<ellipse fill="none" stroke="#057C6D" stroke-width="2" cx="800.5" cy="350.3" rx="12.9" ry="12.9"/>
<text transform="matrix(1.0051 0 0 1 237.4678 242.3377)" font-family="'ArialMT'" font-size="28.4936">Commit A</text>
<text transform="matrix(1.0051 0 0 1 424.948 240.959)" font-family="'ArialMT'" font-size="28.4936">Commit B</text>
<text transform="matrix(1.0051 0 0 1 600.4509 239.5938)" font-family="'ArialMT'" font-size="28.4936">Commit C</text>
<text transform="matrix(1.0051 0 0 1 803.9714 318.6476)" font-family="'ArialMT'" font-size="28.4936">Commit X</text>
<line fill="none" stroke="#000000" x1="333.2" y1="273.4" x2="441.2" y2="273.4"/>
<line fill="none" stroke="#000000" x1="512.7" y1="273.4" x2="620.7" y2="273.4"/>
<line fill="none" stroke="#000000" x1="681.8" y1="287.7" x2="775.2" y2="341.3"/>
<text transform="matrix(1.0051 0 0 1 46.3892 285.5157)" font-family="'ArialMT'" font-size="33.8742">Rama Master</text>
<text transform="matrix(1.0051 0 0 1 47.4131 358.7452)" font-family="'ArialMT'" font-size="33.8742">Rama Experimento</text>
</svg>
