<?xml version="1.0" encoding="utf-8"?>
<!-- Generator: Adobe Illustrator 18.1.1, SVG Export Plug-In . SVG Version: 6.00 Build 0)  -->
<svg version="1.1" id="Layer_1" xmlns="http://www.w3.org/2000/svg" xmlns:xlink="http://www.w3.org/1999/xlink" x="0px" y="0px"
	 viewBox="0 0 960 560" enable-background="new 0 0 960 560" xml:space="preserve">
<ellipse fill="none" stroke="#057C6D" stroke-width="2" cx="266.5" cy="257" rx="11.5" ry="11.5"/>
<ellipse fill="none" stroke="#057C6D" stroke-width="2" cx="427.7" cy="257" rx="11.5" ry="11.5"/>
<ellipse fill="none" stroke="#057C6D" stroke-width="2" cx="589.3" cy="257" rx="11.5" ry="11.5"/>
<ellipse fill="none" stroke="#057C6D" stroke-width="2" cx="718.7" cy="326" rx="11.5" ry="11.5"/>
<text transform="matrix(1.0051 0 0 1 212.5997 228.9805)" fill="#010101" font-family="'ArialMT'" font-size="25.6112">Commit A</text>
<text transform="matrix(1.0051 0 0 1 381.1154 227.7377)" fill="#010101" font-family="'ArialMT'" font-size="25.6112">Commit B</text>
<text transform="matrix(1.0051 0 0 1 538.8651 225.2284)" fill="#010101" font-family="'ArialMT'" font-size="25.6112">Commit C</text>
<text transform="matrix(1.0051 0 0 1 687.3923 225.2305)" fill="#010101" font-family="'ArialMT'" font-size="25.6112">Commit D</text>
<text transform="matrix(1.0051 0 0 1 665.3752 362.5806)" fill="#010101" font-family="'ArialMT'" font-size="25.6112">Commit X</text>
<text transform="matrix(1.0051 0 0 1 824.8306 362.5806)" fill="#010101" font-family="'ArialMT'" font-size="25.6112">Commit Y</text>
<line fill="none" stroke="#000000" x1="298.7" y1="257" x2="395.5" y2="257"/>
<line fill="none" stroke="#000000" x1="460" y1="257" x2="557.1" y2="257"/>
<ellipse fill="none" stroke="#057C6D" stroke-width="2" cx="743.2" cy="255.9" rx="11.5" ry="11.5"/>
<line fill="none" stroke="#000000" x1="614.2" y1="255.9" x2="710.9" y2="255.9"/>
<ellipse fill="none" stroke="#057C6D" stroke-width="2" cx="870.7" cy="327.1" rx="11.5" ry="11.5"/>
<line fill="none" stroke="#000000" x1="745" y1="327.1" x2="842.1" y2="327.1"/>
<line fill="none" stroke="#000000" x1="612" y1="270" x2="696.1" y2="317.8"/>
<text transform="matrix(1.0051 0 0 1 33.2632 267.7913)" fill="#010101" font-family="'ArialMT'" font-size="30.4476">Rama Master</text>
<text transform="matrix(1.0051 0 0 1 34.1802 337.4082)" fill="#010101" font-family="'ArialMT'" font-size="30.4476">Rama Experimento</text>
</svg>
