<?xml version="1.0" encoding="utf-8"?>
<!-- Generator: Adobe Illustrator 18.1.1, SVG Export Plug-In . SVG Version: 6.00 Build 0)  -->
<svg version="1.1" id="Layer_1" xmlns="http://www.w3.org/2000/svg" xmlns:xlink="http://www.w3.org/1999/xlink" x="0px" y="0px"
	 viewBox="0 0 259 57" enable-background="new 0 0 259 57" xml:space="preserve">
<ellipse fill="none" stroke="#B83526" stroke-width="2" cx="71.9" cy="22.3" rx="3.1" ry="3.1"/>
<ellipse fill="none" stroke="#B83526" stroke-width="2" cx="115.4" cy="22.3" rx="3.1" ry="3.1"/>
<ellipse fill="none" stroke="#B83526" stroke-width="2" cx="159" cy="22.3" rx="3.1" ry="3.1"/>
<ellipse fill="none" stroke="#B83526" stroke-width="2" cx="193.9" cy="40.9" rx="3.1" ry="3.1"/>
<text transform="matrix(1.0051 0 0 1 57.3579 14.7354)" fill="#010101" font-family="'MyriadPro-Regular'" font-size="6.9097">Commit A</text>
<text transform="matrix(1.0051 0 0 1 102.8218 14.4004)" fill="#010101" font-family="'MyriadPro-Regular'" font-size="6.9097">Commit B</text>
<text transform="matrix(1.0051 0 0 1 145.3813 13.7231)" fill="#010101" font-family="'MyriadPro-Regular'" font-size="6.9097">Commit C</text>
<text transform="matrix(1.0051 0 0 1 185.4531 13.7236)" fill="#010101" font-family="'MyriadPro-Regular'" font-size="6.9097">Commit D</text>
<text transform="matrix(1.0051 0 0 1 179.5127 50.7793)" fill="#010101" font-family="'MyriadPro-Regular'" font-size="6.9097">Commit X</text>
<text transform="matrix(1.0051 0 0 1 222.5322 50.7793)" fill="#010101" font-family="'MyriadPro-Regular'" font-size="6.9097">Commit Y</text>
<line stroke="#000000" x1="80.6" y1="22.3" x2="106.7" y2="22.3"/>
<line stroke="#000000" x1="124.1" y1="22.3" x2="150.3" y2="22.3"/>
<ellipse fill="none" stroke="#B83526" stroke-width="2" cx="200.5" cy="22" rx="3.1" ry="3.1"/>
<line stroke="#000000" x1="165.7" y1="22" x2="191.8" y2="22"/>
<ellipse fill="none" stroke="#B83526" stroke-width="2" cx="234.9" cy="41.2" rx="3.1" ry="3.1"/>
<line stroke="#000000" x1="201" y1="41.2" x2="227.2" y2="41.2"/>
<line stroke="#000000" x1="165.1" y1="25.8" x2="187.8" y2="38.7"/>
<text transform="matrix(1.0051 0 0 1 8.9746 25.2061)" fill="#010101" font-family="'MyriadPro-Regular'" font-size="8.2145">Rama Master</text>
<text transform="matrix(1.0051 0 0 1 9.2217 43.9883)" fill="#010101" font-family="'MyriadPro-Regular'" font-size="8.2145">Rama Experimento</text>
</svg>
